<svg width="512" height="512" viewBox="0 0 512 512" xmlns="http://www.w3.org/2000/svg">

  <defs>
    <!-- Gradients -->
    <linearGradient id="green3D" x1="0" y1="0" x2="0" y2="1">
      <stop offset="0%" stop-color="#9CFF6B"/>
      <stop offset="50%" stop-color="#19D37A"/>
      <stop offset="100%" stop-color="#007A4D"/>
    </linearGradient>

    <linearGradient id="red3D" x1="0" y1="0" x2="0" y2="1">
      <stop offset="0%" stop-color="#FF5A5A"/>
      <stop offset="50%" stop-color="#E10600"/>
      <stop offset="100%" stop-color="#7A000F"/>
    </linearGradient>

    <!-- Highlight -->
    <linearGradient id="highlight" x1="0" y1="0" x2="1" y2="1">
      <stop offset="0%" stop-color="white" stop-opacity="0.6"/>
      <stop offset="100%" stop-color="white" stop-opacity="0"/>
    </linearGradient>

    <!-- Shadow Filter -->
    <filter id="softShadow" x="-20%" y="-20%" width="140%" height="140%">
      <feDropShadow dx="0" dy="10" stdDeviation="15" flood-color="#000" flood-opacity="0.35"/>
    </filter>
  </defs>

  <g filter="url(#softShadow)">

    <!-- J Letter -->
    <path d="
      M140 80
      H260
      V130
      H190
      V330
      C190 400 140 440 90 440
      C50 440 30 410 30 380
      H90
      C90 395 100 400 110 400
      C125 400 140 385 140 350
      Z
    " fill="url(#green3D)"/>

    <!-- J Highlight -->
    <path d="
      M140 80
      H260
      V130
      H190
      V200
      H140
      Z
    " fill="url(#highlight)"/>

    <!-- M Letter -->
    <path d="
      M270 440
      V80
      L350 220
      L430 80
      V440
      H380
      V190
      L350 250
      L320 190
      V440
      Z
    " fill="url(#red3D)"/>

    <!-- M Highlight -->
    <path d="
      M270 80
      L350 220
      L320 190
      L270 120
      Z
    " fill="url(#highlight)"/>

  </g>

</svg>
